<svg width="1000" height="200" viewBox="0 0 1000 200" xmlns="http://www.w3.org/2000/svg" preserveAspectRatio="xMidYMid meet">
  <defs>
    <!-- Define Pac-Man with animated mouth -->
    <g id="pacman">
      <circle cx="0" cy="0" r="10" fill="gold" />
      <path d="M0,0 L10,-6 A10,10 0 1,1 10,6 Z" fill="#073642">
        <animateTransform attributeName="transform" type="rotate" values="0;45;0" dur="0.5s" repeatCount="indefinite" />
      </path>
    </g>

    <!-- Define a pellet (dot), now 10% smaller -->
    <circle id="pellet" r="4.5" fill="white" />

    <!-- Define the path along the border -->
    <path id="borderPath" d="M20,20 H960 V180 H40 Z" fill="none" stroke="none" />
  </defs>

  <!-- Background rectangle -->
  <rect x="5" y="5" width="990" height="190" fill="#073642" stroke="none" rx="15" ry="15" />

  <!-- Evenly spaced pellets along the entire border -->
  <g id="pellets">
    <use href="#pellet" x="40" y="20" />
    <use href="#pellet" x="100" y="20" />
    <use href="#pellet" x="160" y="20" />
    <use href="#pellet" x="220" y="20" />
    <use href="#pellet" x="280" y="20" />
    <use href="#pellet" x="340" y="20" />
    <use href="#pellet" x="400" y="20" />
    <use href="#pellet" x="460" y="20" />
    <use href="#pellet" x="520" y="20" />
    <use href="#pellet" x="580" y="20" />
    <use href="#pellet" x="640" y="20" />
    <use href="#pellet" x="700" y="20" />
    <use href="#pellet" x="760" y="20" />
    <use href="#pellet" x="820" y="20" />
    <use href="#pellet" x="880" y="20" />
    <use href="#pellet" x="940" y="20" />
    <use href="#pellet" x="960" y="60" />
    <use href="#pellet" x="960" y="100" />
    <use href="#pellet" x="960" y="140" />
    <use href="#pellet" x="960" y="180" />
    <use href="#pellet" x="900" y="180" />
    <use href="#pellet" x="840" y="180" />
    <use href="#pellet" x="780" y="180" />
    <use href="#pellet" x="720" y="180" />
    <use href="#pellet" x="660" y="180" />
    <use href="#pellet" x="600" y="180" />
    <use href="#pellet" x="540" y="180" />
    <use href="#pellet" x="480" y="180" />
    <use href="#pellet" x="420" y="180" />
    <use href="#pellet" x="360" y="180" />
    <use href="#pellet" x="300" y="180" />
    <use href="#pellet" x="240" y="180" />
    <use href="#pellet" x="180" y="180" />
    <use href="#pellet" x="120" y="180" />
    <use href="#pellet" x="60" y="180" />
    <use href="#pellet" x="20" y="140" />
    <use href="#pellet" x="20" y="100" />
    <use href="#pellet" x="20" y="60" />
  </g>

  <!-- Pac-Man moving along the border -->
  <use href="#pacman">
    <animateMotion dur="10s" repeatCount="indefinite" rotate="auto">
      <mpath href="#borderPath" />
    </animateMotion>
  </use>
</svg>
