<svg width="1000" height="200" viewBox="0 0 1000 200" xmlns="http://www.w3.org/2000/svg" preserveAspectRatio="xMidYMid meet">
  <defs>
    <!-- Define Pac-Man with animated mouth -->
    <g id="pacman">
      <circle cx="0" cy="0" r="10" fill="gold" />
      <path d="M0,0 L10,-6 A10,10 0 1,1 10,6 Z" fill="#073642">
        <animateTransform attributeName="transform" type="rotate" values="0;45;0" dur="0.5s" repeatCount="indefinite" />
      </path>
    </g>

    <!-- Define a pellet (dot) -->
    <circle id="pellet" r="5" fill="white" />

    <!-- Define the path along the border -->
    <path id="borderPath" d="M20,20 H960 V180 H40 Z" fill="none" stroke="none" />
  </defs>

  <!-- Background rectangle -->
  <rect x="5" y="5" width="990" height="190" fill="#073642" stroke="none" rx="15" ry="15" />

  <!-- Draw stationary pellets along the border -->
  <g id="pellets">
    <use href="#pellet" x="40" y="20" />
    <use href="#pellet" x="120" y="20" />
    <use href="#pellet" x="200" y="20" />
    <use href="#pellet" x="280" y="20" />
    <use href="#pellet" x="360" y="20" />
    <use href="#pellet" x="440" y="20" />
    <use href="#pellet" x="520" y="20" />
    <use href="#pellet" x="600" y="20" />
    <use href="#pellet" x="680" y="20" />
    <use href="#pellet" x="760" y="20" />
    <use href="#pellet" x="840" y="20" />
    <use href="#pellet" x="920" y="20" />
    <use href="#pellet" x="960" y="40" />
    <use href="#pellet" x="960" y="120" />
    <use href="#pellet" x="960" y="160" />
    <use href="#pellet" x="880" y="180" />
    <use href="#pellet" x="800" y="180" />
    <use href="#pellet" x="720" y="180" />
    <use href="#pellet" x="640" y="180" />
    <use href="#pellet" x="560" y="180" />
    <use href="#pellet" x="480" y="180" />
    <use href="#pellet" x="400" y="180" />
    <use href="#pellet" x="320" y="180" />
    <use href="#pellet" x="240" y="180" />
    <use href="#pellet" x="160" y="180" />
    <use href="#pellet" x="80" y="180" />
    <use href="#pellet" x="20" y="160" />
    <use href="#pellet" x="20" y="80" />
  </g>

  <!-- Pac-Man moving along the border -->
  <use href="#pacman">
    <animateMotion dur="10s" repeatCount="indefinite" rotate="auto">
      <mpath href="#borderPath" />
    </animateMotion>
  </use>
</svg>
