<svg width="1000" height="200" viewBox="0 0 1000 200" xmlns="http://www.w3.org/2000/svg" preserveAspectRatio="xMidYMid meet">
  <defs>
    <!-- Define Pac-Man with animated mouth -->
    <g id="pacman">
      <circle cx="0" cy="0" r="10" fill="gold" />
      <path d="M0,0 L10,-6 A10,10 0 1,1 10,6 Z" fill="#073642">
        <animateTransform attributeName="transform" type="rotate" values="0;45;0" dur="0.5s" repeatCount="indefinite" />
      </path>
    </g>

    <!-- Define a pellet (dot), 10% smaller -->
    <circle id="pellet" r="4.5" fill="white" />

    <!-- Define the path along the border -->
    <path id="borderPath" d="M20,20 H960 V180 H40 Z" fill="none" stroke="none" />
  </defs>

  <!-- Background rectangle -->
  <rect x="5" y="5" width="990" height="190" fill="#073642" stroke="none" rx="15" ry="15" />

  <!-- Evenly spaced pellets along the border, including corners -->
  <g id="pellets">
    <!-- Top side (960px long) -->
    <use href="#pellet" x="20" y="20" />    <!-- Top-left corner -->
    <use href="#pellet" x="140" y="20" />
    <use href="#pellet" x="260" y="20" />
    <use href="#pellet" x="380" y="20" />
    <use href="#pellet" x="500" y="20" />
    <use href="#pellet" x="620" y="20" />
    <use href="#pellet" x="740" y="20" />
    <use href="#pellet" x="860" y="20" />
    <use href="#pellet" x="960" y="20" />   <!-- Top-right corner -->

    <!-- Right side (160px long) -->
    <use href="#pellet" x="960" y="60" />
    <use href="#pellet" x="960" y="100" />
    <use href="#pellet" x="960" y="140" />
    <use href="#pellet" x="960" y="180" />  <!-- Bottom-right corner -->

    <!-- Bottom side (960px long) -->
    <use href="#pellet" x="860" y="180" />
    <use href="#pellet" x="740" y="180" />
    <use href="#pellet" x="620" y="180" />
    <use href="#pellet" x="500" y="180" />
    <use href="#pellet" x="380" y="180" />
    <use href="#pellet" x="260" y="180" />
    <use href="#pellet" x="140" y="180" />
    <use href="#pellet" x="20" y="180" />   <!-- Bottom-left corner -->

    <!-- Left side (160px long) -->
    <use href="#pellet" x="20" y="140" />
    <use href="#pellet" x="20" y="100" />
    <use href="#pellet" x="20" y="60" />
  </g>

  <!-- Pac-Man moving along the border -->
  <use href="#pacman">
    <animateMotion dur="10s" repeatCount="indefinite" rotate="auto">
      <mpath href="#borderPath" />
    </animateMotion>
  </use>
</svg>
